<svg width="99" height="18" viewBox="0 0 99 18" fill="none" xmlns="http://www.w3.org/2000/svg">
<path d="M6.0725 8.122C6.6015 8.122 7.05 8.05683 7.418 7.9265C7.79367 7.7885 8.10033 7.60067 8.338 7.363C8.57567 7.12533 8.74817 6.84933 8.8555 6.535C8.96283 6.213 9.0165 5.868 9.0165 5.5C9.0165 4.764 8.775 4.189 8.292 3.775C7.81667 3.361 7.07683 3.154 6.0725 3.154H4.5085V8.122H6.0725ZM14.3295 17H10.8105C10.1588 17 9.69117 16.7547 9.4075 16.264L6.6245 11.3995C6.49417 11.1925 6.3485 11.043 6.1875 10.951C6.0265 10.8513 5.7965 10.8015 5.4975 10.8015H4.5085V17H0.6215V0.2445H6.0725C7.28383 0.2445 8.315 0.371 9.166 0.624C10.0247 0.869333 10.7223 1.21433 11.259 1.659C11.8033 2.10367 12.1982 2.62883 12.4435 3.2345C12.6888 3.84017 12.8115 4.4995 12.8115 5.2125C12.8115 5.75683 12.7387 6.2705 12.593 6.7535C12.4473 7.2365 12.2327 7.685 11.949 8.099C11.6653 8.50533 11.3127 8.8695 10.891 9.1915C10.477 9.5135 9.99783 9.778 9.4535 9.985C9.7065 10.1153 9.94417 10.2802 10.1665 10.4795C10.3888 10.6712 10.5882 10.9012 10.7645 11.1695L14.3295 17ZM24.5927 10.5945L23.0402 6.006C22.9252 5.71467 22.8025 5.3735 22.6722 4.9825C22.5419 4.58383 22.4115 4.1545 22.2812 3.6945C22.1662 4.16217 22.0435 4.59533 21.9132 4.994C21.7829 5.39267 21.6602 5.73767 21.5452 6.029L20.0042 10.5945H24.5927ZM30.7682 17H27.7552C27.4179 17 27.1457 16.9233 26.9387 16.77C26.7317 16.609 26.5745 16.4058 26.4672 16.1605L25.4782 13.2395H19.1072L18.1182 16.1605C18.0339 16.3752 17.8805 16.5707 17.6582 16.747C17.4435 16.9157 17.1752 17 16.8532 17H13.8172L20.3032 0.2445H24.2822L30.7682 17ZM47.2923 8.6165C47.2923 9.82783 47.0814 10.9472 46.6598 11.9745C46.2458 12.9942 45.6593 13.8797 44.9003 14.631C44.1413 15.3747 43.2251 15.9573 42.1518 16.379C41.0861 16.793 39.9016 17 38.5983 17H32.0893V0.2445H38.5983C39.9016 0.2445 41.0861 0.455333 42.1518 0.876999C43.2251 1.29867 44.1413 1.88133 44.9003 2.625C45.6593 3.36867 46.2458 4.25417 46.6598 5.2815C47.0814 6.30117 47.2923 7.41283 47.2923 8.6165ZM43.3133 8.6165C43.3133 7.7885 43.2059 7.041 42.9913 6.374C42.7766 5.707 42.4661 5.1435 42.0598 4.6835C41.6611 4.21583 41.1704 3.85933 40.5878 3.614C40.0051 3.361 39.3419 3.2345 38.5983 3.2345H35.9993V14.01H38.5983C39.3419 14.01 40.0051 13.8873 40.5878 13.642C41.1704 13.389 41.6611 13.0325 42.0598 12.5725C42.4661 12.1048 42.7766 11.5375 42.9913 10.8705C43.2059 10.2035 43.3133 9.45217 43.3133 8.6165Z" fill="black"/>
<path d="M53.4963 17H49.5863V0.2445H53.4963V17ZM68.0219 12.6645C68.1139 12.6645 68.2059 12.6837 68.2979 12.722C68.3899 12.7527 68.4781 12.8102 68.5624 12.8945L70.1034 14.516C69.4288 15.3977 68.5816 16.0647 67.5619 16.517C66.5499 16.9617 65.3501 17.184 63.9624 17.184C62.6898 17.184 61.5474 16.9693 60.5354 16.54C59.5311 16.103 58.6763 15.505 57.9709 14.746C57.2733 13.9793 56.7366 13.0747 56.3609 12.032C55.9853 10.9817 55.7974 9.84317 55.7974 8.6165C55.7974 7.36683 56.0006 6.22067 56.4069 5.178C56.8133 4.12767 57.3844 3.223 58.1204 2.464C58.8564 1.705 59.7381 1.11467 60.7654 0.692999C61.7928 0.271333 62.9236 0.0604994 64.1579 0.0604994C64.7866 0.0604994 65.3769 0.117999 65.9289 0.232999C66.4886 0.340332 67.0099 0.493665 67.4929 0.692999C67.9759 0.884666 68.4206 1.1185 68.8269 1.3945C69.2333 1.6705 69.5936 1.9695 69.9079 2.2915L68.5969 4.051C68.5126 4.15833 68.4129 4.258 68.2979 4.35C68.1829 4.43433 68.0219 4.4765 67.8149 4.4765C67.6769 4.4765 67.5466 4.44583 67.4239 4.3845C67.3013 4.32317 67.1709 4.25033 67.0329 4.166C66.8949 4.074 66.7416 3.97817 66.5729 3.8785C66.4119 3.77117 66.2164 3.67533 65.9864 3.591C65.7641 3.499 65.4996 3.42233 65.1929 3.361C64.8939 3.29967 64.5413 3.269 64.1349 3.269C63.4909 3.269 62.9006 3.38783 62.3639 3.6255C61.8349 3.86317 61.3749 4.212 60.9839 4.672C60.6006 5.12433 60.3016 5.684 60.0869 6.351C59.8799 7.01033 59.7764 7.7655 59.7764 8.6165C59.7764 9.47517 59.8914 10.238 60.1214 10.905C60.3591 11.572 60.6773 12.1355 61.0759 12.5955C61.4823 13.0478 61.9538 13.3928 62.4904 13.6305C63.0271 13.8682 63.6021 13.987 64.2154 13.987C64.5681 13.987 64.8901 13.9717 65.1814 13.941C65.4728 13.9027 65.7449 13.8452 65.9979 13.7685C66.2509 13.6842 66.4886 13.5768 66.7109 13.4465C66.9333 13.3085 67.1594 13.136 67.3894 12.929C67.4814 12.8523 67.5811 12.791 67.6884 12.745C67.7958 12.6913 67.9069 12.6645 68.0219 12.6645ZM80.6552 10.5945L79.1027 6.006C78.9877 5.71467 78.865 5.3735 78.7347 4.9825C78.6044 4.58383 78.474 4.1545 78.3437 3.6945C78.2287 4.16217 78.106 4.59533 77.9757 4.994C77.8454 5.39267 77.7227 5.73767 77.6077 6.029L76.0667 10.5945H80.6552ZM86.8307 17H83.8177C83.4804 17 83.2082 16.9233 83.0012 16.77C82.7942 16.609 82.637 16.4058 82.5297 16.1605L81.5407 13.2395H75.1697L74.1807 16.1605C74.0964 16.3752 73.943 16.5707 73.7207 16.747C73.506 16.9157 73.2377 17 72.9157 17H69.8797L76.3657 0.2445H80.3447L86.8307 17ZM98.2488 13.895V17H88.1518V0.2445H92.0388V13.895H98.2488Z" fill="#8B201D"/>
</svg>
